<svg width="25" height="24" viewBox="0 0 25 24" fill="none" xmlns="http://www.w3.org/2000/svg">
<path d="M7.25 13.5C10.9719 13.5 14 10.4719 14 6.75C14 3.02812 10.9719 0 7.25 0C3.52812 0 0.5 3.02812 0.5 6.75C0.5 10.4719 3.52812 13.5 7.25 13.5ZM8 7.5H6.5C5.90326 7.5 5.33097 7.26295 4.90901 6.84099C4.48705 6.41903 4.25 5.84674 4.25 5.25C4.25 4.65326 4.48705 4.08097 4.90901 3.65901C5.33097 3.23705 5.90326 3 6.5 3V1.875H8V3C8.59653 3.00068 9.16843 3.23795 9.59024 3.65976C10.012 4.08157 10.2493 4.65347 10.25 5.25H8.75C8.74976 5.05116 8.67067 4.86053 8.53007 4.71993C8.38947 4.57933 8.19884 4.50024 8 4.5H6.5C6.30109 4.5 6.11032 4.57902 5.96967 4.71967C5.82902 4.86032 5.75 5.05109 5.75 5.25C5.75 5.44891 5.82902 5.63968 5.96967 5.78033C6.11032 5.92098 6.30109 6 6.5 6H8C8.59674 6 9.16903 6.23705 9.59099 6.65901C10.0129 7.08097 10.25 7.65326 10.25 8.25C10.25 8.84674 10.0129 9.41903 9.59099 9.84099C9.16903 10.2629 8.59674 10.5 8 10.5V11.625H6.5V10.5C5.90347 10.4993 5.33157 10.262 4.90976 9.84024C4.48795 9.41843 4.25068 8.84653 4.25 8.25H5.75C5.75024 8.44884 5.82933 8.63947 5.96993 8.78007C6.11053 8.92067 6.30116 8.99976 6.5 9H8C8.19891 9 8.38968 8.92098 8.53033 8.78033C8.67098 8.63968 8.75 8.44891 8.75 8.25C8.75 8.05109 8.67098 7.86032 8.53033 7.71967C8.38968 7.57902 8.19891 7.5 8 7.5Z" fill="#2B6AE8"/>
<path d="M17.75 10.5C14.0281 10.5 11 13.5281 11 17.25C11 20.9719 14.0281 24 17.75 24C21.4719 24 24.5 20.9719 24.5 17.25C24.5 13.5281 21.4719 10.5 17.75 10.5ZM18.5 16.5V18H16.25V18.375C16.2503 18.6733 16.369 18.9592 16.5799 19.1701C16.7908 19.381 17.0767 19.4997 17.375 19.5H18.5C18.6988 19.4998 18.8895 19.4207 19.0301 19.2801C19.1707 19.1395 19.2498 18.9488 19.25 18.75H20.75C20.7493 19.3465 20.512 19.9184 20.0902 20.3402C19.6684 20.762 19.0965 20.9993 18.5 21V22.125H17V20.9728C16.3756 20.8819 15.8048 20.5694 15.3917 20.0925C14.9786 19.6156 14.7508 19.006 14.75 18.375V16.125C14.7508 15.494 14.9786 14.8844 15.3917 14.4075C15.8048 13.9306 16.3756 13.6181 17 13.5272V12.375H18.5V13.5C19.0965 13.5007 19.6684 13.738 20.0902 14.1598C20.512 14.5816 20.7493 15.1535 20.75 15.75H19.25C19.2498 15.5512 19.1707 15.3605 19.0301 15.2199C18.8895 15.0793 18.6988 15.0002 18.5 15H17.375C17.0767 15.0003 16.7908 15.119 16.5799 15.3299C16.369 15.5408 16.2503 15.8267 16.25 16.125V16.5H18.5Z" fill="#2B6AE8"/>
<path d="M20.4697 7.8187L19.4562 7.52911L19.0437 8.97136L21.6687 9.72136C21.8442 9.77158 22.032 9.75605 22.1968 9.67768C22.3616 9.59931 22.4922 9.46348 22.564 9.29569L23.689 6.67069L22.3106 6.07992L21.8347 7.19039C21.1401 5.84413 20.1628 4.66381 18.9698 3.73023C17.7768 2.79664 16.3962 2.13181 14.9224 1.78125L14.5776 3.24103C17.1172 3.84089 19.2687 5.54086 20.4697 7.8187Z" fill="#2B6AE8"/>
<path d="M4.53025 16.1815L5.54392 16.4711L5.95604 15.0288L3.33104 14.2788C3.15557 14.2287 2.96784 14.2443 2.80303 14.3227C2.63822 14.401 2.50763 14.5368 2.43573 14.7045L1.31073 17.3295L2.68937 17.9203L3.16529 16.8098C3.85988 18.1561 4.83713 19.3364 6.03015 20.27C7.22317 21.2036 8.60381 21.8684 10.0776 22.2189L10.4224 20.7592C7.88279 20.1593 5.73123 18.4593 4.53025 16.1815Z" fill="#2B6AE8"/>
</svg>
