<svg width="24" height="25" viewBox="0 0 24 25" fill="none" xmlns="http://www.w3.org/2000/svg">
<path d="M20.04 7.32018L14.28 3.29018C12.71 2.19018 10.3 2.25018 8.78999 3.42018L3.77999 7.33018C2.77999 8.11018 1.98999 9.71018 1.98999 10.9702V17.8702C1.98999 20.4202 4.05999 22.5002 6.60999 22.5002H17.39C19.94 22.5002 22.01 20.4302 22.01 17.8802V11.1002C22.01 9.75018 21.14 8.09018 20.04 7.32018ZM12.75 18.5002C12.75 18.9102 12.41 19.2502 12 19.2502C11.59 19.2502 11.25 18.9102 11.25 18.5002V15.5002C11.25 15.0902 11.59 14.7502 12 14.7502C12.41 14.7502 12.75 15.0902 12.75 15.5002V18.5002Z" fill="white"/>
</svg>
