<svg width="92" height="34" viewBox="0 0 92 34" fill="none" xmlns="http://www.w3.org/2000/svg">
<path d="M18.4902 7.25746C17.8983 7.25746 17.3276 7.03801 16.8834 6.64766C15.6058 5.52406 13.9357 4.83936 12.101 4.83936C8.08986 4.83936 4.83936 8.09197 4.83936 12.1021C4.8383 16.1122 8.09092 19.3627 12.101 19.3627H21.7829C23.1196 19.3627 24.2042 20.4462 24.2042 21.784C24.2042 23.1207 23.1207 24.2052 21.7829 24.2052H12.101C5.41856 24.2052 0 18.7856 0 12.1031C0 5.42067 5.41962 0.00316505 12.1021 0C15.1627 0.00211003 17.9585 1.13836 20.0896 3.01313C21.7682 4.48909 20.7268 7.25746 18.4913 7.25746H18.4902Z" fill="#FCB51E"/>
<path d="M15.0435 26.7415C15.6353 26.7415 16.2051 26.9599 16.6492 27.3513C17.9268 28.4738 19.5959 29.1596 21.4306 29.1596C25.4523 29.1596 28.7102 25.8848 28.6912 21.861C28.6722 17.8509 25.3605 14.6341 21.3504 14.6341H18.3889H14.1689H11.7487C10.412 14.6341 9.32846 13.5506 9.32846 12.2139C9.32846 10.8772 10.412 9.7937 11.7487 9.7937H21.4316C28.113 9.7937 33.5337 15.2123 33.5337 21.8968C33.5337 28.5814 28.113 33.9968 21.4316 34C18.371 33.9979 15.5763 32.8606 13.4462 30.9879C11.7677 29.512 12.809 26.7436 15.0445 26.7436L15.0435 26.7415Z" fill="#1976D2"/>
<path d="M44.2657 21.62C42.9577 21.62 41.6497 21.212 40.9537 20.612L41.4937 19.4C42.1657 19.94 43.2337 20.324 44.2657 20.324C45.5737 20.324 46.1257 19.856 46.1257 19.232C46.1257 17.42 41.1337 18.608 41.1337 15.488C41.1337 14.132 42.2137 12.98 44.5177 12.98C45.5257 12.98 46.5817 13.244 47.3137 13.724L46.8217 14.936C46.0657 14.492 45.2377 14.276 44.5057 14.276C43.2097 14.276 42.6817 14.78 42.6817 15.416C42.6817 17.204 47.6617 16.04 47.6617 19.124C47.6617 20.468 46.5697 21.62 44.2657 21.62ZM51.5126 15.02C53.3606 15.02 54.4286 15.896 54.4286 17.744V21.5H53.0126V20.72C52.6526 21.272 51.9566 21.584 50.9966 21.584C49.5326 21.584 48.6086 20.78 48.6086 19.664C48.6086 18.596 49.3286 17.756 51.2726 17.756H52.9286V17.66C52.9286 16.784 52.4006 16.268 51.3326 16.268C50.6126 16.268 49.8686 16.508 49.3886 16.904L48.8006 15.812C49.4846 15.284 50.4806 15.02 51.5126 15.02ZM51.3086 20.492C52.0406 20.492 52.6766 20.156 52.9286 19.496V18.752H51.3806C50.3606 18.752 50.0846 19.136 50.0846 19.604C50.0846 20.144 50.5406 20.492 51.3086 20.492ZM57.7816 16.028C58.2136 15.356 58.9936 15.02 60.0616 15.02V16.448C59.9296 16.424 59.8216 16.412 59.7136 16.412C58.5736 16.412 57.8536 17.084 57.8536 18.392V21.5H56.3536V15.092H57.7816V16.028ZM67.2995 18.332C67.2995 18.452 67.2875 18.632 67.2755 18.776H62.2475C62.4275 19.712 63.2075 20.312 64.3235 20.312C65.0435 20.312 65.6075 20.084 66.0635 19.616L66.8675 20.54C66.2915 21.224 65.3915 21.584 64.2875 21.584C62.1395 21.584 60.7475 20.204 60.7475 18.296C60.7475 16.388 62.1515 15.02 64.0595 15.02C65.9315 15.02 67.2995 16.328 67.2995 18.332ZM64.0595 16.22C63.0875 16.22 62.3795 16.844 62.2355 17.78H65.8715C65.7515 16.856 65.0435 16.22 64.0595 16.22ZM74.7643 18.332C74.7643 18.452 74.7523 18.632 74.7403 18.776H69.7123C69.8923 19.712 70.6723 20.312 71.7883 20.312C72.5083 20.312 73.0723 20.084 73.5283 19.616L74.3323 20.54C73.7563 21.224 72.8563 21.584 71.7523 21.584C69.6043 21.584 68.2123 20.204 68.2123 18.296C68.2123 16.388 69.6163 15.02 71.5243 15.02C73.3963 15.02 74.7643 16.328 74.7643 18.332ZM71.5243 16.22C70.5523 16.22 69.8443 16.844 69.7003 17.78H73.3363C73.2163 16.856 72.5083 16.22 71.5243 16.22Z" fill="#FCB51E"/>
<path d="M82.4812 14.408H77.9092V16.964H81.9652V18.284H77.9092V21.5H76.3492V13.1H82.4812V14.408ZM90.906 21.5H89.106L86.826 18.308L84.57 21.5H82.794L85.914 17.216L82.962 13.1H84.726L86.874 16.088L88.998 13.1H90.69L87.75 17.156L90.906 21.5Z" fill="#1976D2"/>
</svg>
