<svg width="20" height="20" viewBox="0 0 20 20" fill="none" xmlns="http://www.w3.org/2000/svg">
<path d="M19.9867 0.668107C19.9859 0.664773 19.9846 0.661439 19.9838 0.658105C19.9696 0.591846 19.9455 0.52767 19.915 0.465578C19.9071 0.449743 19.8992 0.434324 19.8904 0.418488C19.8546 0.355563 19.8129 0.295138 19.7592 0.24138C19.7054 0.187623 19.6446 0.14595 19.5817 0.110112C19.5666 0.10136 19.5516 0.0938594 19.5358 0.0859417C19.4721 0.0546873 19.4066 0.029267 19.3383 0.0150984C19.3362 0.0146816 19.3349 0.0142649 19.3333 0.0138482C19.262 -0.000320467 19.1895 -0.00240409 19.117 0.00217989C19.1012 0.00301334 19.0853 0.00468024 19.0695 0.00676386C18.9962 0.0155151 18.9232 0.0309339 18.8536 0.0592712L0.518138 7.56033C0.191009 7.69409 -0.0161033 8.01956 0.000982396 8.37211C0.0180681 8.72507 0.255602 9.02887 0.594399 9.13013L8.49884 11.5017L10.87 19.4062C10.9717 19.7445 11.2755 19.9821 11.628 19.9992C11.6418 19.9996 11.6551 20 11.6689 20C12.0056 20 12.3115 19.7966 12.4402 19.482L19.9413 1.14609C19.9413 1.14567 19.9413 1.14567 19.9413 1.14526C19.9692 1.07691 19.9842 1.00565 19.993 0.933561C19.995 0.915642 19.9971 0.898139 19.998 0.88022C20.0021 0.809377 20.0005 0.738117 19.9867 0.668107ZM3.33103 8.21042L15.6511 3.17013L8.93099 9.89065L3.33103 8.21042ZM11.7893 16.6695L10.1095 11.0692L16.8292 4.34946L11.7893 16.6695Z" fill="#2B6AE8"/>
</svg>
