<svg width="51" height="56" viewBox="0 0 51 56" fill="none" xmlns="http://www.w3.org/2000/svg">
<path d="M27.2234 7.25746C26.6315 7.25746 26.0607 7.03801 25.6166 6.64766C24.339 5.52406 22.6689 4.83936 20.8342 4.83936C16.823 4.83936 13.5725 8.09197 13.5725 12.1021C13.5715 16.1122 16.8241 19.3627 20.8342 19.3627H30.5161C31.8528 19.3627 32.9373 20.4462 32.9373 21.784C32.9373 23.1207 31.8538 24.2052 30.5161 24.2052H20.8342C14.1517 24.2052 8.73315 18.7856 8.73315 12.1031C8.73315 5.42067 14.1528 0.00316505 20.8352 0C23.8958 0.00211003 26.6916 1.13836 28.8228 3.01313C30.5013 4.48909 29.46 7.25746 27.2244 7.25746H27.2234Z" fill="#FFC107"/>
<path d="M23.7766 26.7415C24.3685 26.7415 24.9382 26.9599 25.3824 27.3513C26.66 28.4738 28.329 29.1596 30.1637 29.1596C34.1854 29.1596 37.4433 25.8848 37.4243 21.861C37.4053 17.8509 34.0936 14.6341 30.0835 14.6341H27.1221H22.902H20.4818C19.1451 14.6341 18.0616 13.5506 18.0616 12.2139C18.0616 10.8772 19.1451 9.79371 20.4818 9.79371H30.1648C36.8462 9.79371 42.2669 15.2123 42.2669 21.8969C42.2669 28.5814 36.8462 33.9968 30.1648 34C27.1042 33.9979 24.3094 32.8606 22.1793 30.9879C20.5008 29.512 21.5421 26.7436 23.7777 26.7436L23.7766 26.7415Z" fill="#1976D2"/>
<path d="M3.732 53.12C2.424 53.12 1.116 52.712 0.42 52.112L0.96 50.9C1.632 51.44 2.7 51.824 3.732 51.824C5.04 51.824 5.592 51.356 5.592 50.732C5.592 48.92 0.6 50.108 0.6 46.988C0.6 45.632 1.68 44.48 3.984 44.48C4.992 44.48 6.048 44.744 6.78 45.224L6.288 46.436C5.532 45.992 4.704 45.776 3.972 45.776C2.676 45.776 2.148 46.28 2.148 46.916C2.148 48.704 7.128 47.54 7.128 50.624C7.128 51.968 6.036 53.12 3.732 53.12ZM10.9789 46.52C12.8269 46.52 13.8949 47.396 13.8949 49.244V53H12.4789V52.22C12.1189 52.772 11.4229 53.084 10.4629 53.084C8.99888 53.084 8.07488 52.28 8.07488 51.164C8.07488 50.096 8.79488 49.256 10.7389 49.256H12.3949V49.16C12.3949 48.284 11.8669 47.768 10.7989 47.768C10.0789 47.768 9.33488 48.008 8.85488 48.404L8.26688 47.312C8.95088 46.784 9.94688 46.52 10.9789 46.52ZM10.7749 51.992C11.5069 51.992 12.1429 51.656 12.3949 50.996V50.252H10.8469C9.82688 50.252 9.55088 50.636 9.55088 51.104C9.55088 51.644 10.0069 51.992 10.7749 51.992ZM17.2479 47.528C17.6799 46.856 18.4599 46.52 19.5279 46.52V47.948C19.3959 47.924 19.2879 47.912 19.1799 47.912C18.0399 47.912 17.3199 48.584 17.3199 49.892V53H15.8199V46.592H17.2479V47.528ZM26.7658 49.832C26.7658 49.952 26.7538 50.132 26.7418 50.276H21.7138C21.8938 51.212 22.6738 51.812 23.7898 51.812C24.5098 51.812 25.0738 51.584 25.5298 51.116L26.3338 52.04C25.7578 52.724 24.8578 53.084 23.7538 53.084C21.6058 53.084 20.2138 51.704 20.2138 49.796C20.2138 47.888 21.6178 46.52 23.5258 46.52C25.3978 46.52 26.7658 47.828 26.7658 49.832ZM23.5258 47.72C22.5538 47.72 21.8458 48.344 21.7018 49.28H25.3378C25.2178 48.356 24.5098 47.72 23.5258 47.72ZM34.2307 49.832C34.2307 49.952 34.2187 50.132 34.2067 50.276H29.1787C29.3587 51.212 30.1387 51.812 31.2547 51.812C31.9747 51.812 32.5387 51.584 32.9947 51.116L33.7987 52.04C33.2227 52.724 32.3227 53.084 31.2187 53.084C29.0707 53.084 27.6787 51.704 27.6787 49.796C27.6787 47.888 29.0827 46.52 30.9907 46.52C32.8627 46.52 34.2307 47.828 34.2307 49.832ZM30.9907 47.72C30.0187 47.72 29.3107 48.344 29.1667 49.28H32.8027C32.6827 48.356 31.9747 47.72 30.9907 47.72Z" fill="#FFC107"/>
<path d="M41.9475 45.908H37.3755V48.464H41.4315V49.784H37.3755V53H35.8155V44.6H41.9475V45.908ZM50.3723 53H48.5723L46.2923 49.808L44.0363 53H42.2603L45.3803 48.716L42.4283 44.6H44.1923L46.3403 47.588L48.4643 44.6H50.1563L47.2163 48.656L50.3723 53Z" fill="#1976D2"/>
</svg>
